<svg xmlns="http://www.w3.org/2000/svg" xmlns:xlink="http://www.w3.org/1999/xlink" width="113.319" height="142.115" viewBox="0 0 113.319 142.115"><defs><linearGradient id="a" x1="2.149" y1="0.594" x2="2.024" y2="0.782" gradientUnits="objectBoundingBox"><stop offset="0" stop-color="#2c7ed1"/><stop offset="1" stop-color="#163f69"/></linearGradient><filter id="b" x="33.78" y="23.559" width="30" height="118.556" filterUnits="userSpaceOnUse"><feOffset dy="3" input="SourceAlpha"/><feGaussianBlur stdDeviation="3" result="c"/><feFlood/><feComposite operator="in" in2="c"/><feComposite in="SourceGraphic"/></filter><filter id="e" x="50.78" y="44.615" width="30" height="97.5" filterUnits="userSpaceOnUse"><feOffset dy="3" input="SourceAlpha"/><feGaussianBlur stdDeviation="3" result="f"/><feFlood flood-color="#010101"/><feComposite operator="in" in2="f"/><feComposite in="SourceGraphic"/></filter><filter id="h" x="0" y="0" width="113.319" height="63.749" filterUnits="userSpaceOnUse"><feOffset dy="3" input="SourceAlpha"/><feGaussianBlur stdDeviation="3" result="i"/><feFlood/><feComposite operator="in" in2="i"/><feComposite in="SourceGraphic"/></filter><filter id="k" x="23.27" y="23.707" width="85.02" height="53.193" filterUnits="userSpaceOnUse"><feOffset dy="3" input="SourceAlpha"/><feGaussianBlur stdDeviation="3" result="l"/><feFlood/><feComposite operator="in" in2="l"/><feComposite in="SourceGraphic"/></filter><filter id="m" x="37.659" y="22.243" width="38" height="38" filterUnits="userSpaceOnUse"><feOffset dy="3" input="SourceAlpha"/><feGaussianBlur stdDeviation="3" result="n"/><feFlood flood-opacity="0.878"/><feComposite operator="in" in2="n"/><feComposite in="SourceGraphic"/></filter><linearGradient id="o" x1="0.5" x2="0.5" y2="1" gradientUnits="objectBoundingBox"><stop offset="0" stop-color="#fff"/><stop offset="1" stop-color="#fff"/></linearGradient><filter id="p" x="43.159" y="48.114" width="27" height="94.001" filterUnits="userSpaceOnUse"><feOffset dy="3" input="SourceAlpha"/><feGaussianBlur stdDeviation="3" result="q"/><feFlood flood-opacity="0.761"/><feComposite operator="in" in2="q"/><feComposite in="SourceGraphic"/></filter></defs><g transform="translate(9 6)"><g transform="matrix(1, 0, 0, 1, -9, -6)" filter="url(#b)"><rect width="12" height="100.556" transform="translate(42.78 29.56)" fill="url(#a)"/></g><g transform="matrix(1, 0, 0, 1, -9, -6)" filter="url(#e)"><rect width="12" height="79.5" transform="translate(59.78 50.61)" fill="url(#a)"/></g><g transform="matrix(1, 0, 0, 1, -9, -6)" filter="url(#h)"><rect width="13.562" height="96.5" transform="translate(99.68 6) rotate(70)" fill="url(#a)"/></g><g transform="matrix(1, 0, 0, 1, -9, -6)" filter="url(#k)"><rect width="13.247" height="66.5" transform="translate(94.76 29.71) rotate(70)" fill="url(#a)"/></g><g transform="translate(37.659 22.243)"><g transform="matrix(1, 0, 0, 1, -46.66, -28.24)" filter="url(#m)"><circle cx="10" cy="10" r="10" transform="translate(46.66 28.24)" fill="#e55651"/></g><g transform="matrix(1, 0, 0, 1, -46.66, -28.24)" filter="url(#p)"><path d="M9,0H9A0,0,0,0,1,9,0V76a0,0,0,0,1,0,0H0a0,0,0,0,1,0,0V9A9,9,0,0,1,9,0Z" transform="translate(52.16 54.11)" fill="url(#o)"/></g></g></g></svg>